<svg height="512pt" viewBox="0 -158 512 512" width="512pt" xmlns="http://www.w3.org/2000/svg"><path d="m152.679688 90.375h308.453124v15.449219h-308.453124zm0 0" fill="#b9acac"/><path d="m173.179688 11.035156c0-6.558594-5.679688-11.621094-12.207032-10.9804685-91.207031 8.9804685-160.972656 67.6992185-160.972656 98.0390625 0 30.359375 69.859375 89.132812 161.152344 98.054688 6.457031.632812 12.027344-4.511719 12.027344-10.996094zm0 0" fill="#b9acac"/><path d="m160.972656.0546875c-8.242187.8125005-16.308594 2.0351565-24.164062 3.6015625v149.640625c0 6.488281-5.570313 11.628906-12.027344 11-44.480469-4.347656-83.867188-20.53125-112.570312-39.496094 23.851562 29.792969 80.34375 64.644531 148.941406 71.347657 6.457031.632812 12.027344-4.507813 12.027344-10.996094v-174.117188c0-6.558594-5.679688-11.625-12.207032-10.9804685zm0 0" fill="#9e9797"/><path d="m92.320312 87.296875c0 11.625-9.425781 21.050781-21.050781 21.050781s-21.050781-9.425781-21.050781-21.050781 9.425781-21.050781 21.050781-21.050781 21.050781 9.425781 21.050781 21.050781zm0 0" fill="#766e6e"/><path d="m71.269531 66.246094c-3.421875 0-6.644531.835937-9.5 2.285156 6.84375 3.472656 11.546875 10.5625 11.546875 18.765625s-4.703125 15.292969-11.546875 18.765625c2.855469 1.449219 6.078125 2.285156 9.5 2.285156 11.625 0 21.050781-9.425781 21.050781-21.050781s-9.425781-21.050781-21.050781-21.050781zm0 0" fill="#5b5555"/><path d="m487.347656 92.058594 24.652344-73.4375c0-7.808594-8.855469-12.320313-15.171875-7.730469l-108.738281 78.96875c-5.597656 4.070313-5.597656 12.414063 0 16.484375l108.738281 78.96875c6.316406 4.585938 15.171875.074219 15.171875-7.730469l-24.652344-73.4375c-1.316406-3.921875-1.316406-8.164062 0-12.085937zm0 0" fill="#b9acac"/><path d="m512 18.621094c0-7.808594-8.855469-12.320313-15.171875-7.730469l-20.875 15.160156-22.160156 66.007813c-1.316407 3.921875-1.316407 8.164062 0 12.085937l22.160156 66.003907 20.875 15.164062c6.316406 4.585938 15.171875.074219 15.171875-7.730469l-24.652344-73.4375c-1.316406-3.921875-1.316406-8.164062 0-12.085937zm0 0" fill="#9e9797"/><g fill="#b9acac"><path d="m243.261719 7.964844c0-5.757813-7.640625-7.75-10.464844-2.734375-10.308594 18.28125-17.234375 52.3125-17.234375 91.273437 0 38.964844 6.925781 72.996094 17.234375 91.273438 2.824219 5.015625 10.464844 3.023437 10.464844-2.730469zm0 0"/><path d="m301.109375 29.511719c0-5.757813-7.640625-7.75-10.464844-2.734375-10.308593 18.28125-13.449219 54.0625-13.449219 75.621094 0 21.5625 3.140626 48.746093 13.449219 67.027343 2.828125 5.015625 10.464844 3.023438 10.464844-2.734375zm0 0"/><path d="m358.957031 39.742188c0-5.757813-7.636719-7.75-10.464843-2.734376-10.304688 18.28125-13.445313 43.832032-13.445313 65.390626 0 21.5625 3.140625 38.515624 13.445313 56.796874 2.828124 5.015626 10.464843 3.023438 10.464843-2.734374zm0 0"/></g><path d="m232.792969 5.230469c-.304688.542969-.609375 1.101562-.90625 1.671875.058593.339844.09375.691406.09375 1.0625v177.082031c0 .367187-.035157.722656-.09375 1.058594.296875.574219.601562 1.132812.90625 1.675781 2.828125 5.015625 10.464843 3.023438 10.464843-2.734375v-177.082031c.003907-5.757813-7.636718-7.75-10.464843-2.734375zm0 0" fill="#9e9797"/><path d="m290.644531 26.777344c-.308593.546875-.609375 1.109375-.90625 1.6875.058594.335937.089844.683594.089844 1.046875v137.179687c0 .351563-.03125.691406-.085937 1.015625.300781.570313.585937 1.160157.902343 1.71875 2.828125 5.015625 10.464844 3.023438 10.464844-2.734375v-137.179687c0-5.757813-7.640625-7.75-10.464844-2.734375zm0 0" fill="#9e9797"/><path d="m348.492188 37.007812c-.316407.558594-.601563 1.140626-.902344 1.710938.054687.328125.085937.667969.085937 1.023438v116.71875c0 .367187-.03125.71875-.09375 1.054687.304688.558594.59375 1.117187.910157 1.675781 2.828124 5.015625 10.464843 3.023438 10.464843-2.730468v-116.71875c0-5.757813-7.636719-7.75-10.464843-2.734376zm0 0" fill="#9e9797"/></svg>