<svg id="Layer_1" enable-background="new 0 0 512 512" height="512" viewBox="0 0 512 512" width="512" xmlns="http://www.w3.org/2000/svg"><g><g><path d="m238.248 326.653c-.946 0-1.9-.179-2.813-.548-2.832-1.146-4.686-3.896-4.686-6.952v-127.306c0-3.056 1.854-5.806 4.686-6.952 2.836-1.147 6.078-.459 8.203 1.735l61.625 63.653c2.815 2.908 2.815 7.525 0 10.434l-61.625 63.653c-1.44 1.488-3.397 2.283-5.39 2.283z" fill="#fdbf00"/></g><path d="m230.75 255.5v63.653c0 3.056 1.854 5.806 4.686 6.952.912.369 1.866.548 2.813.548 1.993 0 3.949-.795 5.391-2.283l61.625-63.653c1.408-1.454 2.112-3.335 2.112-5.217z" fill="#ff8856"/><g><path d="m7.748 504.001c-.92 0-1.848-.169-2.738-.519-2.871-1.126-4.76-3.896-4.76-6.981v-127.308c0-3.084 1.889-5.855 4.76-6.981 2.875-1.129 6.141-.38 8.238 1.88l59.053 63.654c2.669 2.877 2.669 7.325 0 10.202l-59.053 63.653c-1.447 1.561-3.452 2.4-5.5 2.4z" fill="#ff7038"/></g><path d="m.25 432.798v63.702c0 3.085 1.889 5.855 4.76 6.981.891.35 1.818.519 2.738.519 2.048 0 4.053-.839 5.5-2.399l59.053-63.653c1.346-1.451 2.011-3.303 2-5.15z" fill="#ff1f3d"/><g><path d="m7.748 150.307c-.92 0-1.848-.169-2.738-.519-2.871-1.126-4.76-3.897-4.76-6.981v-127.307c0-3.084 1.889-5.855 4.76-6.981 2.875-1.129 6.141-.38 8.238 1.88l59.053 63.653c2.669 2.877 2.669 7.325 0 10.202l-59.053 63.653c-1.447 1.561-3.452 2.4-5.5 2.4z" fill="#7dd5f4"/></g><path d="m.25 79.153v63.654c0 3.084 1.889 5.855 4.76 6.981.891.35 1.818.519 2.738.519 2.048 0 4.053-.839 5.5-2.399l59.053-63.653c1.334-1.438 2.002-3.27 2.002-5.101h-74.053z" fill="#4793ff"/><g><path d="m402.063 336.347c-46.395 0-88.187-29.833-109.065-77.856-.829-1.907-.829-4.073 0-5.98 20.879-48.024 62.671-77.856 109.065-77.856s88.185 29.833 109.065 77.856c.829 1.908.829 4.074 0 5.981-20.88 48.022-62.672 77.855-109.065 77.855z" fill="#ffde46"/></g><path d="m292.375 255.5c0 1.018.207 2.036.622 2.99 20.879 48.023 62.671 77.856 109.065 77.856s88.186-29.833 109.065-77.856c.415-.954.622-1.972.622-2.991h-219.374z" fill="#ffcd00"/><g><circle clip-rule="evenodd" cx="444.25" cy="255.5" fill="#00347b" fill-rule="evenodd" r="15"/></g><g><path d="m163.99 512c-44.304 0-84.19-29.209-104.094-76.229-.792-1.869-.792-3.979 0-5.848 19.903-47.02 59.79-76.229 104.094-76.229 44.305 0 84.191 29.209 104.095 76.23.791 1.869.791 3.978 0 5.847-19.903 47.02-59.79 76.229-104.095 76.229z" fill="#ff936b"/></g><path d="m59.305 432.798c-.007 1.011.189 2.023.592 2.973 19.903 47.02 59.79 76.229 104.093 76.229 44.305 0 84.191-29.209 104.095-76.229.402-.95.597-1.962.591-2.973z" fill="#ff6378"/><g><circle clip-rule="evenodd" cx="200.75" cy="432.847" fill="#00347b" fill-rule="evenodd" r="15"/></g><g><path d="m163.99 158.306c-44.304 0-84.19-29.209-104.094-76.229-.792-1.869-.792-3.979 0-5.848 19.904-47.02 59.791-76.229 104.094-76.229 44.305 0 84.191 29.209 104.095 76.23.791 1.869.791 3.978 0 5.847-19.903 47.02-59.79 76.229-104.095 76.229z" fill="#bcfbff"/></g><path d="m59.302 79.153c0 .995.198 1.989.594 2.924 19.903 47.02 59.79 76.229 104.094 76.229 44.305 0 84.191-29.209 104.095-76.229.396-.934.593-1.929.593-2.924z" fill="#7dd5f4"/><g><circle clip-rule="evenodd" cx="200.75" cy="79.153" fill="#00347b" fill-rule="evenodd" r="15"/></g><g clip-rule="evenodd" fill="#001737" fill-rule="evenodd"><path d="m185.75 79.153c0 8.262 6.738 15 15 15s15-6.739 15-15z"/><path d="m444.25 270.5c8.262 0 15-6.738 15-15h-30c0 8.262 6.739 15 15 15z"/><path d="m185.752 432.798c0 .017-.003.032-.003.049 0 8.262 6.738 15 15 15s15-6.738 15-15c0-.017-.002-.032-.002-.049z"/></g></g></svg>