<svg height="511pt" viewBox="0 0 511 511.99889" width="511pt" xmlns="http://www.w3.org/2000/svg"><path d="m207.84375 338.011719c170.164062 0 305.570312-142.625 296.738281-312.558594l-.867187-16.675781-16.675782-.867188c-169.933593-8.832031-312.558593 126.574219-312.558593 296.738282l-149 17.175781c70.511719 37.082031 128.109375 94.683593 165.191406 165.195312zm0 0" fill="#ffb655"/><path d="m304.425781 59.007812h-77.578125l-126.03125 126.03125h98.703125c22.574219-51.289062 59.222657-94.871093 104.90625-126.03125zm0 0" fill="#ff7956"/><path d="m286.515625 327.480469v86.957031l70.691406-70.695312v-45.949219c-21.917969 12.773437-45.628906 22.832031-70.691406 29.6875zm0 0" fill="#ff7956"/><path d="m487.039062 7.910156c-55.464843-2.882812-108.011718 9.609375-153.648437 33.652344 6.304687 32.921875 22.199219 64.367188 47.6875 89.855469s56.933594 41.378906 89.855469 47.6875c24.042968-45.636719 36.53125-98.1875 33.648437-153.652344l-.863281-16.675781zm0 0" fill="#ffe477"/><path d="m454.207031 78.28125c-6.273437-6.273438-16.445312-6.273438-22.71875 0-6.273437 6.273438-6.273437 16.441406 0 22.714844 6.273438 6.273437 16.445313 6.273437 22.71875 0 6.273438-6.273438 6.273438-16.441406 0-22.714844zm0 0" fill="#ff9811"/><path d="m434.214844 78.28125c-6.273438-6.273438-16.445313-6.273438-22.714844 0-6.273438 6.273438-6.273438 16.441406 0 22.714844 6.269531 6.273437 16.441406 6.273437 22.714844 0 6.273437-6.273438 6.273437-16.441406 0-22.714844zm0 0" fill="#57565c"/><path d="m55.46875 321.824219 149-17.175781c0-159.820313 125.8125-288.96875 281.898438-296.765626-169.636719-8.4375-311.886719 126.828126-311.886719 296.765626l-149 17.175781c70.507812 37.082031 128.109375 94.683593 165.191406 165.191406l4.777344-41.46875c-35.925781-51.679687-83.855469-94.207031-139.980469-123.722656zm0 0" fill="#ff8243"/><path d="m130.800781 185.039062 126.035157-126.03125h-29.988282l-126.03125 126.03125h98.703125zm0 0" fill="#ed4726"/><path d="m316.503906 327.480469c14.015625-3.835938 27.609375-8.671875 40.703125-14.425781v-15.261719c-21.917969 12.773437-45.628906 22.828125-70.691406 29.6875v86.953125l29.988281-29.984375zm0 0" fill="#ed4726"/><path d="m411.0625 131.417969c-25.488281-25.488281-41.382812-56.9375-47.6875-89.859375 37.125-19.554688 78.820312-31.46875 122.9375-33.679688-55.195312-2.734375-107.488281 9.746094-152.921875 33.679688 6.304687 32.921875 22.195313 64.371094 47.683594 89.859375s56.9375 41.378906 89.859375 47.6875c1.261718-2.398438 2.484375-4.816407 3.683594-7.25-23.195313-8.382813-44.960938-21.847657-63.554688-40.4375zm0 0" fill="#ff9811"/><path d="m512.070312 25.066406-1.21875-23.425781-23.421874-1.21875c-42.539063-2.210937-84.113282 4.246094-123.574219 19.1875-38.03125 14.398437-72.34375 35.96875-101.984375 64.109375-3.980469 3.78125-7.84375 7.648438-11.59375 11.605469h-34.789063v14.992187h21.476563c-6.8125 8.203125-13.171875 16.734375-19.0625 25.578125h-42.984375v14.992188h33.617187c-5.902344 10.089843-11.234375 20.550781-15.980468 31.351562-16.078126 36.605469-24.648438 75.503907-25.5 115.71875l-166.554688 19.203125 21.492188 11.300782c69.472656 36.535156 125.507812 92.570312 162.042968 162.046874l11.300782 21.492188 19.199218-166.5625c40.214844-.855469 79.113282-9.421875 115.71875-25.503906 37.234375-16.351563 70.378906-39.671875 98.519532-69.3125 28.140624-29.640625 49.710937-63.953125 64.109374-101.984375 14.941407-39.460938 21.398438-81.035157 19.1875-123.570313zm-94.171874 215.230469c-55.234376 58.179687-129.832032 90.21875-210.054688 90.21875h-6.679688l-15.296874 132.695313c-33.78125-56.160157-80.421876-102.800782-136.582032-136.585938l132.691406-15.296875v-6.679687c0-80.222657 32.039063-154.820313 90.21875-210.054688 58.179688-55.234375 134.335938-83.359375 214.453126-79.199219l9.929687.515625.519531 9.933594c4.160156 80.113281-23.964844 156.273438-79.199218 214.453125zm0 0"/><path d="m109.910156 347.339844 44.734375-24.304688 7.160157 13.171875-44.738282 24.308594zm0 0"/><path d="m151.964844 395.417969 24.300781-44.734375 13.175781 7.15625-24.300781 44.734375zm0 0"/><path d="m358.054688 153.734375s-39.285157-.039063-54.925782-.046875c-.019531-20.328125-.023437-40.074219-.023437-58.667969h-14.992188c0 18.59375.003907 38.335938.023438 58.65625-9.976563-.003906-54.894531-.019531-54.894531-.019531s0 38.628906.015624 54.902344l-23.601562-.011719-.011719 14.996094 23.617188.011719c.003906 13.179687.015625 26.539062.03125 39.925781l-36.9375-.027344-.007813 14.992187 36.957032.027344c.003906 12.660156.015624 25.292969.039062 37.769532l14.992188-.023438c-.023438-12.464844-.035157-25.082031-.039063-37.734375 0 0 30.566406.03125 39.945313.039063.007812 8.292968.015624 16.492187.019531 24.5625l14.996093-.011719c-.007812-8.0625-.011718-16.253907-.023437-24.535157 0 0 38.164063.050782 47.441406.070313l7.523438.011719-.011719-7.523438c-.027344-15.25-.050781-31.164062-.070312-47.441406l59.871093.085938.023438-14.992188-59.914063-.085938zm-14.949219 54.914063c-9.371094-.003907-39.9375-.035157-39.9375-.035157-.015625-13.390625-.027344-26.75-.027344-39.933593 13.175781.007812 26.539063.015624 39.929687.027343.003907 9.886719.035157 39.941407.035157 39.941407zm-94.875-39.992188s29.933593.007812 39.914062.015625c.003907 13.179687.015625 26.539063.03125 39.925781-13.390625-.015625-26.75-.023437-39.925781-.027344-.011719-13.625-.023438-26.992187-.019531-39.914062zm.058593 94.835938c-.015624-13.390626-.027343-26.746094-.03125-39.929688 13.179688.003906 26.539063.011719 39.929688.027344.007812 10.289062.039062 39.941406.039062 39.941406-9.371093-.007812-39.9375-.039062-39.9375-.039062zm54.929688.054687s-.027344-29.660156-.035156-39.941406c0 0 30.5625.03125 39.941406.039062.019531 13.632813.035156 27.011719.058594 39.957031-6.882813-.007812-39.964844-.054687-39.964844-.054687zm0 0"/><path d="m345.609375 59.269531-14.289063 4.550781c8.691407 27.300782 24.0625 52.507813 44.453126 72.898438 20.40625 20.402344 45.628906 35.78125 72.949218 44.46875l4.542969-14.289062c-25.402344-8.078126-47.90625-21.800782-66.886719-40.78125-18.972656-18.972657-32.691406-41.460938-40.769531-66.847657zm0 0"/><path d="m422.859375 113.199219c6.292969 0 12.210937-2.453125 16.664063-6.902344 9.183593-9.1875 9.183593-24.132813 0-33.320313-4.453126-4.449218-10.367188-6.902343-16.660157-6.902343s-12.210937 2.453125-16.660156 6.902343c-9.1875 9.1875-9.1875 24.132813 0 33.320313 4.445313 4.449219 10.363281 6.902344 16.65625 6.902344zm-6.054687-29.621094c1.617187-1.617187 3.769531-2.511719 6.054687-2.511719 2.289063 0 4.441406.894532 6.058594 2.511719 3.34375 3.339844 3.34375 8.777344 0 12.117187-1.617188 1.617188-3.769531 2.507813-6.058594 2.507813-2.285156 0-4.4375-.890625-6.058594-2.507813-3.339843-3.339843-3.339843-8.777343.003907-12.117187zm0 0"/><path d="m177.882812 177.542969h-58.96875l111.039063-111.039063h41.183594v-14.992187h-47.394531l-141.027344 141.023437h95.167968zm0 0"/><path d="m349.710938 340.636719-55.699219 55.699219v-48.132813h-14.996094l.003906 84.332031 85.683594-85.6875v-26.117187h-14.992187zm0 0"/><g fill="#fff"><path d="m440.113281 202.660156c-12.285156-4.082031-24.226562-9.355468-35.503906-15.679687l7.332031-13.078125c10.449219 5.859375 21.515625 10.746094 32.898438 14.527344zm-44.421875-20.980468c-4.367187-2.746094-8.6875-5.703126-12.84375-8.78125l8.925782-12.046876c3.851562 2.851563 7.855468 5.59375 11.90625 8.140626zm-21.019531-15.160157c-3.988281-3.277343-7.902344-6.746093-11.636719-10.316406l10.355469-10.84375c3.46875 3.3125 7.101563 6.535156 10.796875 9.574219zm0 0"/><path d="m464.175781 152.828125-13.738281-6.003906c9.121094-20.875 15.507812-42.917969 18.980469-65.523438l14.820312 2.277344c-3.667969 23.890625-10.417969 47.1875-20.0625 69.25zm21.4375-79.425781-14.894531-1.734375c.558594-4.800781.992188-9.6875 1.289062-14.523438l14.964844.914063c-.3125 5.105468-.769531 10.269531-1.359375 15.34375zm1.796875-25.605469-14.988281-.363281c.050781-2.140625.078125-4.316406.078125-6.472656 0-2.699219-.042969-5.425782-.125-8.109376l14.988281-.457031c.085938 2.832031.128907 5.714844.128907 8.566407 0 2.277343-.027344 4.578124-.082032 6.835937zm0 0"/></g></svg>