<?xml version="1.0" encoding="iso-8859-1"?>
<!-- Generator: Adobe Illustrator 19.0.0, SVG Export Plug-In . SVG Version: 6.00 Build 0)  -->
<svg version="1.1" id="Layer_1" xmlns="http://www.w3.org/2000/svg" xmlns:xlink="http://www.w3.org/1999/xlink" x="0px" y="0px"
	 viewBox="0 0 512 512" style="enable-background:new 0 0 512 512;" xml:space="preserve">
<path style="fill:#3C66B1;" d="M149.887,222.889c0,0,37.745-92.218,146.751-92.706c102.275-0.458,126.618,60.418,126.618,60.418
	L149.887,222.889z"/>
<path style="fill:#8EC1ED;" d="M264.189,341.145C173.718,316.363,82.09,258.881,82.09,258.881s142.521-93.415,257.231-93.415
	s165.019,123.299,165.019,123.299s-50.308,63.53-165.019,63.53c-7.576,0-15.227-0.407-22.913-1.168L264.189,341.145z"/>
<g style="opacity:0.4;">
	<path style="fill:#3C66B1;" d="M504.341,288.763c0,0-31.931-78.257-102.919-110.08c-16.936,7.167-53.487,49.476-54.385,83.742
		c-0.955,36.443,12.929,69.572,42.624,85.472C468.886,333.518,504.341,288.763,504.341,288.763z"/>
</g>
<g>
	<path style="opacity:0.23;fill:#315591;enable-background:new    ;" d="M339.322,319.769c-7.576,0-15.227-0.407-22.913-1.168
		l-52.22-9.983c-60.06-16.452-120.62-47.31-154.554-66.2c-17.257,9.855-27.545,16.596-27.545,16.596s91.628,57.483,182.098,82.264
		l52.22,9.983c7.686,0.761,15.337,1.168,22.913,1.168c114.71,0,165.019-63.53,165.019-63.53s-3.565-8.736-10.958-21.554
		C472.998,285.556,423.502,319.769,339.322,319.769z"/>
	<path style="fill:#315591;" d="M504.341,296.423h-52.493c-4.231,0-7.659-3.429-7.659-7.659s3.428-7.659,7.659-7.659h52.493
		c4.231,0,7.659,3.429,7.659,7.659S508.571,296.423,504.341,296.423z"/>
	<path style="fill:#315591;" d="M347.037,269.059c0,0,0.054,92.509-82.844,112.76v-92.424c0-10.28,8.213-18.677,18.49-18.905
		L347.037,269.059z"/>
	<circle style="fill:#315591;" cx="412.448" cy="255.831" r="10.812"/>
</g>
<path style="fill:#52A2E7;" d="M92.303,258.88c0,0-0.534-31.476-18.613-45.137C55.61,200.081,0,187.516,0,187.516
	s27.365,53.365,45.444,67.026c0.025,0.018,0.049,0.037,0.074,0.055c2.886,2.167,2.886,6.397,0,8.564
	c-0.025,0.018-0.049,0.037-0.074,0.055C27.365,276.879,0,330.244,0,330.244s55.61-12.564,73.69-26.226
	C91.769,290.355,92.303,258.881,92.303,258.88h-0.001H92.303z"/>
<g style="opacity:0.23;">
	<path style="fill:#315591;" d="M91.59,250.904c-1.405,10.254-5.573,27.845-17.9,37.161c-13.265,10.023-46.733,19.457-63.617,23.769
		C4.055,322.337,0,330.244,0,330.244s55.61-12.564,73.69-26.226c18.079-13.662,18.613-45.137,18.613-45.137h-0.001h0.001
		C92.303,258.88,92.247,255.687,91.59,250.904z"/>
</g>
<g>
</g>
<g>
</g>
<g>
</g>
<g>
</g>
<g>
</g>
<g>
</g>
<g>
</g>
<g>
</g>
<g>
</g>
<g>
</g>
<g>
</g>
<g>
</g>
<g>
</g>
<g>
</g>
<g>
</g>
</svg>
