<svg id="Capa_1" enable-background="new 0 0 512 512" height="512" viewBox="0 0 512 512" width="512" xmlns="http://www.w3.org/2000/svg"><g><path d="m26.619 151.569h-26.619v32.881c0 29.99 15.604 56.403 39.118 71.55-23.514 15.147-39.118 41.56-39.118 71.55v32.881h26.619c46.895 0 85.047-38.152 85.047-85.048v-38.765c.001-46.896-38.151-85.049-85.047-85.049z" fill="#00a6ff"/><g><path d="m39.118 256c-23.514 15.147-39.118 41.56-39.118 71.55v32.881h26.619c46.895 0 85.047-38.152 85.047-85.048v-19.383z" fill="#008aff"/></g><path d="m94.148 258.5h312.99c.299-78.437-.493-157.99-3.079-160.428-39.682-37.422-92.309-58.531-147.354-58.531h-84.935v29.92c30.445 0 58.044 16.639 72.674 42.229h-7.897c-78.571 0-142.494 63.923-142.494 142.495 0 .58.004 1.16.01 1.738.01.854.049 1.716.085 2.577z" fill="#69c1ff"/><g><path d="m329.034 256c0 63.155 29.027 119.523 74.46 156.514 3.58-3.406 7.067-6.931 10.439-10.599 33.994-36.974 91.28-135.946 93.701-140.141l4.366-5.774s-62.175-106.95-93.276-142.668c-4.493-5.16-9.219-10.063-14.133-14.73-46.061 36.974-75.557 93.737-75.557 157.398z" fill="#b2dcff"/></g><g><g><g><g><g><path d="m403.26 205.887c7.825 0 15.322-6.881 14.96-14.96-.363-8.105-6.573-14.96-14.96-14.96-7.825 0-15.322 6.881-14.96 14.96.363 8.106 6.573 14.96 14.96 14.96z" fill="#00a6ff"/></g></g></g></g></g><g><path d="m94.075 256c.977 77.737 64.507 140.678 142.471 140.678h9.35c-14.851 27.219-43.719 44.981-75.767 44.981l-.159 29.919 83.167.88.158.001c31.064 0 61.077-6.398 89.207-19.017 22.762-10.211 43.324-24.037 61.294-41.195 1.736-1.658 3.078-78.814 3.35-156.247z" fill="#00a6ff"/></g><g><path d="m403.494 412.514c3.58-3.406 7.067-6.931 10.439-10.599 33.994-36.973 98.067-145.915 98.067-145.915h-182.966c0 63.155 29.027 119.523 74.46 156.514z" fill="#69c1ff"/></g><g><g><g><g><path d="m284.44 301.102h-42.649c-37.511 0-68.028-30.517-68.028-68.028v-22.176h42.65c37.51 0 68.027 30.517 68.027 68.027z" fill="#b2dcff"/></g></g></g></g><path d="m241.791 301.102h42.649v-22.176c0-8.042-1.412-15.758-3.985-22.926h-102.706c9.43 26.263 34.574 45.102 64.042 45.102z" fill="#69c1ff"/></g></svg>